Coordinates
version=1
nRows=18
nColumns=63
inDegrees=yes

Units are S.I. units (second, meters, Newtons, ...)
If the header above contains a line with 'inDegrees', this indicates whether rotational values are in degrees (yes) or radians (no).

endheader
time	pelvis_tilt	pelvis_list	pelvis_rotation	pelvis_tx	pelvis_ty	pelvis_tz	hip_flexion_r	hip_adduction_r	hip_rotation_r	knee_angle_r	knee_angle_r_beta	ankle_angle_r	subtalar_angle_r	mtp_angle_r	hip_flexion_l	hip_adduction_l	hip_rotation_l	knee_angle_l	knee_angle_l_beta	ankle_angle_l	subtalar_angle_l	mtp_angle_l	L5_S1_Flex_Ext	L5_S1_Lat_Bending	L5_S1_axial_rotation	L4_L5_Flex_Ext	L4_L5_Lat_Bending	L4_L5_axial_rotation	L3_L4_Flex_Ext	L3_L4_Lat_Bending	L3_L4_axial_rotation	L2_L3_Flex_Ext	L2_L3_Lat_Bending	L2_L3_axial_rotation	L1_L2_Flex_Ext	L1_L2_Lat_Bending	L1_L2_axial_rotation	L1_T12_Flex_Ext	L1_T12_Lat_Bending	L1_T12_axial_rotation	Abs_r3	Abs_r2	Abs_r1	Abs_t1	Abs_t2	neck_flexion	neck_bending	neck_rotation	arm_flex_r	arm_add_r	arm_rot_r	elbow_flex_r	pro_sup_r	wrist_flex_r	wrist_dev_r	arm_flex_l	arm_add_l	arm_rot_l	elbow_flex_l	pro_sup_l	wrist_flex_l	wrist_dev_l
2.135593	2.600848	14.641759	74.462748	0.167093	0.816746	0.600593	-4.197423	-2.894159	3.229201	21.373222	0.373033	39.249367	-0.000802	0.000000	-13.426935	2.395900	17.369617	5.102978	0.089064	35.239245	-17.993574	0.000000	0.150645	-0.161146	-0.799742	0.279764	-0.214324	-0.849726	0.247495	-0.391811	-0.849726	0.172173	-0.391811	-0.699775	0.139889	-0.328609	-0.649791	0.086079	-0.249615	-0.599807	1.076045	-1.822918	-4.447927	0.000000	0.000000	6.026840	4.056972	0.655510	25.400493	-40.347093	35.722485	89.128186	71.075508	4.249586	-4.170338	22.730973	-57.150065	34.687892	92.676985	73.378450	8.863188	-12.669519
2.152542	2.640522	14.807294	73.788610	0.166513	0.817051	0.600926	-4.231262	-3.077270	3.568959	21.451691	0.374403	38.937823	-0.064871	0.000000	-13.562921	2.643551	16.877857	5.188443	0.090555	35.215389	-18.005774	0.000000	0.147565	-0.162750	-0.782957	0.274043	-0.216457	-0.831892	0.242435	-0.395709	-0.831892	0.168652	-0.395709	-0.685087	0.137029	-0.331879	-0.636153	0.084319	-0.252099	-0.587218	1.054042	-1.841056	-4.354572	0.000000	0.000000	6.599872	3.432665	0.962486	27.578917	-38.607966	35.026385	85.004240	68.865511	5.132614	-3.492527	23.734599	-56.507951	32.404972	89.871694	72.087578	9.334446	-11.292527
2.169492	2.706613	14.937447	73.125738	0.165903	0.817351	0.601338	-4.247634	-3.224530	3.847137	21.496017	0.375176	38.599490	-0.071223	0.000000	-13.645060	2.851677	16.356178	5.298840	0.092482	35.230225	-18.014632	0.000000	0.149730	-0.156432	-0.774695	0.278063	-0.208055	-0.823113	0.245991	-0.380349	-0.823113	0.171126	-0.380349	-0.677858	0.139039	-0.318996	-0.629440	0.085556	-0.242313	-0.581021	1.069505	-1.769591	-4.308621	0.000000	0.000000	7.146344	2.683758	1.358412	29.718133	-36.848875	34.647440	80.749982	67.188062	5.650222	-2.850454	24.892059	-55.816930	30.690817	86.870731	70.027868	10.018539	-9.935981
2.186441	2.790958	15.031731	72.499249	0.165232	0.817625	0.601825	-4.239287	-3.339605	4.046992	21.519548	0.375587	38.229563	-0.047203	0.000000	-13.672602	3.023513	15.857100	5.432240	0.094810	35.277591	-18.029099	0.000000	0.156300	-0.142120	-0.786909	0.290266	-0.189019	-0.836091	0.256786	-0.345550	-0.836091	0.178636	-0.345550	-0.688545	0.145141	-0.289811	-0.639364	0.089310	-0.220144	-0.590182	1.116438	-1.607688	-4.376552	0.000000	0.000000	7.628845	1.844513	1.956421	31.885896	-35.108349	34.663012	76.389608	66.041491	5.815296	-2.257480	26.001928	-55.043543	29.230774	83.643761	67.372686	10.809778	-8.472380
2.203390	2.894344	15.067342	71.896076	0.164486	0.817825	0.602408	-4.173513	-3.418406	4.161723	21.536066	0.375875	37.844801	0.029708	0.000000	-13.618230	3.154148	15.383147	5.604451	0.097816	35.354318	-18.048807	0.000000	0.167018	-0.117777	-0.813111	0.310169	-0.156644	-0.863931	0.274394	-0.286364	-0.863931	0.190885	-0.286364	-0.711472	0.155093	-0.240172	-0.660653	0.095434	-0.182437	-0.609834	1.192992	-1.332322	-4.522282	0.000000	0.000000	8.069980	0.955952	2.841137	34.004808	-33.458902	35.028579	71.977959	65.591123	5.693879	-1.881099	27.070013	-54.166291	28.052304	80.143911	64.337888	11.453057	-7.007121
2.220339	3.005466	15.015037	71.349950	0.163659	0.817881	0.603065	-4.018765	-3.460507	4.167645	21.546988	0.376066	37.462076	0.170294	0.000000	-13.448629	3.237962	14.962309	5.811846	0.101436	35.460128	-18.055672	0.000000	0.184641	-0.085386	-0.849133	0.342896	-0.113563	-0.902204	0.303346	-0.207608	-0.902204	0.211026	-0.207608	-0.742992	0.171457	-0.174119	-0.689921	0.105504	-0.132263	-0.636850	1.318869	-0.965904	-4.722625	0.000000	0.000000	8.522812	0.068753	3.935603	35.871271	-31.958440	35.451091	67.657035	66.170710	5.227280	-1.559460	28.165766	-53.199616	27.202086	76.351773	60.916785	11.844676	-5.587716
2.237288	3.099323	14.911390	70.855416	0.162791	0.817815	0.603874	-3.776399	-3.497519	4.080766	21.597072	0.376940	37.115628	0.364132	0.000000	-13.196238	3.308118	14.598024	6.045701	0.105517	35.553048	-18.083459	0.000000	0.203089	-0.051487	-0.894915	0.377156	-0.068477	-0.950847	0.333654	-0.125185	-0.950847	0.232110	-0.125185	-0.783050	0.188588	-0.104992	-0.727118	0.116045	-0.079753	-0.671186	1.450642	-0.582427	-4.977248	0.000000	0.000000	8.970487	-0.766300	5.150673	37.488273	-30.627169	35.996013	63.396374	66.896752	4.932584	-1.398101	29.211188	-52.172845	26.712835	72.208874	57.544286	12.151408	-4.386200
2.254237	3.177422	14.729908	70.444294	0.161828	0.817591	0.604811	-3.430004	-3.518574	3.887830	21.669103	0.378197	36.821522	0.617138	0.000000	-12.828573	3.351341	14.301951	6.313431	0.110190	35.641397	-18.114643	0.000000	0.224911	-0.015987	-0.949878	0.417682	-0.021263	-1.009246	0.369506	-0.038871	-1.009246	0.257051	-0.038871	-0.831143	0.208852	-0.032601	-0.771776	0.128514	-0.024764	-0.712409	1.606516	-0.180851	-5.282938	0.000000	0.000000	9.451627	-1.516841	6.454216	38.773894	-29.533674	36.548754	59.304307	67.714511	4.826026	-1.245231	30.291308	-51.118741	26.748044	67.692090	54.244333	12.467602	-3.514990
2.271186	3.217288	14.490721	70.120081	0.160844	0.817232	0.605913	-2.993630	-3.540980	3.633275	21.757289	0.379736	36.599267	0.901066	0.000000	-12.367993	3.389988	14.059038	6.594418	0.115094	35.698895	-18.150459	0.000000	0.247940	0.013716	-1.005658	0.460450	0.018242	-1.068512	0.407341	0.033349	-1.068512	0.283371	0.033349	-0.879951	0.230237	0.027969	-0.817097	0.141673	0.021246	-0.754244	1.771012	0.155156	-5.593169	0.000000	0.000000	9.970751	-2.168135	7.610167	39.657560	-28.691524	37.047026	55.429539	68.310101	4.932936	-1.119928	31.497416	-50.084736	27.577863	62.832608	51.400326	12.633108	-3.095854
2.288136	3.233594	14.187596	69.873868	0.159798	0.816746	0.607206	-2.460256	-3.544752	3.354031	21.863286	0.381586	36.439771	1.187300	0.000000	-11.805820	3.409397	13.867339	6.896574	0.120368	35.731332	-18.187426	0.000000	0.272422	0.039986	-1.059046	0.505916	0.053182	-1.125237	0.447563	0.097222	-1.125237	0.311352	0.097222	-0.926666	0.252971	0.081540	-0.860475	0.155662	0.061938	-0.794285	1.945886	0.452331	-5.890098	0.000000	0.000000	10.496229	-2.725773	8.648864	40.119264	-28.111258	37.281507	51.827366	68.850558	5.363306	-0.871050	32.846056	-49.057891	29.366316	57.642385	49.382444	12.558270	-3.240327
2.305085	3.239445	13.835686	69.680838	0.158722	0.816167	0.608687	-1.856198	-3.513078	3.128039	21.975498	0.383545	36.324028	1.407329	0.000000	-11.170203	3.406337	13.689315	7.210755	0.125851	35.746341	-18.224542	0.000000	0.297212	0.063040	-1.107662	0.551953	0.083844	-1.176891	0.488290	0.153277	-1.176891	0.339684	0.153277	-0.969204	0.275991	0.128552	-0.899975	0.169827	0.097650	-0.830746	2.122958	0.713126	-6.160482	0.000000	0.000000	10.998653	-3.201147	9.522746	40.273979	-27.813077	37.709365	48.531575	68.748633	5.780356	-0.629874	34.317478	-48.067296	32.315528	52.244885	48.390086	11.950616	-3.989972
2.322034	3.219291	13.446470	69.538999	0.157648	0.815494	0.610397	-1.182027	-3.465775	2.933623	22.105410	0.385812	36.250163	1.593483	0.000000	-10.459345	3.396461	13.526267	7.545665	0.131697	35.727808	-18.269083	0.000000	0.321599	0.079725	-1.143125	0.597241	0.106034	-1.214570	0.528354	0.193844	-1.214570	0.367555	0.193844	-1.000234	0.298636	0.162575	-0.928789	0.183761	0.123494	-0.857343	2.297147	0.901866	-6.357716	0.000000	0.000000	11.487072	-3.571070	10.184409	40.019623	-27.708220	37.844937	45.573339	68.457850	6.220965	-0.288483	35.966951	-47.115312	36.599805	46.766194	48.287657	10.788726	-5.358592
2.338983	3.194857	13.050806	69.398403	0.156604	0.814752	0.612234	-0.493399	-3.391048	2.854168	22.233147	0.388042	36.202625	1.683897	0.000000	-9.728137	3.380920	13.337043	7.895954	0.137810	35.702548	-18.307605	0.000000	0.342490	0.094138	-1.172610	0.636038	0.125204	-1.245898	0.562677	0.228888	-1.245898	0.391432	0.228888	-1.026033	0.318036	0.191967	-0.952745	0.195699	0.145820	-0.879457	2.446370	1.064912	-6.521703	0.000000	0.000000	11.986996	-3.835322	10.816519	39.671138	-27.787269	38.450720	42.941580	67.259897	6.182566	0.080697	37.430037	-46.268272	41.452495	41.473466	48.927695	9.021729	-7.250206
2.355932	3.170365	12.662350	69.252349	0.155609	0.813948	0.614167	0.192533	-3.294599	2.860818	22.367970	0.390395	36.171286	1.712765	0.000000	-8.991078	3.359007	13.123417	8.271185	0.144359	35.665927	-18.340866	0.000000	0.358721	0.106406	-1.193592	0.666181	0.141520	-1.268191	0.589343	0.258715	-1.268191	0.409983	0.258715	-1.044393	0.333109	0.216983	-0.969793	0.204973	0.164822	-0.895194	2.562310	1.203683	-6.638399	0.000000	0.000000	12.520984	-3.966969	11.429421	39.260148	-27.962745	39.400672	40.572073	65.392270	5.868388	0.525226	38.598868	-45.512062	46.437083	36.547867	49.969518	6.932839	-9.415631
2.372881	3.130228	12.308760	69.096000	0.154663	0.813098	0.616162	0.830071	-3.205829	2.959426	22.466639	0.392117	36.143778	1.680427	0.000000	-8.285037	3.357777	12.865713	8.642360	0.150838	35.602379	-18.371798	0.000000	0.367242	0.113445	-1.197756	0.682006	0.150881	-1.272615	0.603343	0.275829	-1.272615	0.419721	0.275829	-1.048036	0.341021	0.231336	-0.973176	0.209842	0.175726	-0.898317	2.623176	1.283309	-6.661557	0.000000	0.000000	13.137282	-3.936945	11.958747	38.797461	-28.196053	40.602586	38.427064	62.827365	5.398939	1.103989	39.493533	-44.875251	51.474630	32.162132	51.014541	4.662497	-11.633117
2.389831	3.088628	11.964929	68.931491	0.153766	0.812186	0.618090	1.440102	-3.113265	3.119502	22.548640	0.393548	36.121773	1.614738	0.000000	-7.596169	3.357949	12.579877	9.008442	0.157227	35.525416	-18.397400	0.000000	0.372354	0.119397	-1.197320	0.691499	0.158799	-1.272152	0.611740	0.290303	-1.272152	0.425563	0.290303	-1.047655	0.345768	0.243475	-0.972822	0.212763	0.184947	-0.897990	2.659687	1.350647	-6.659134	0.000000	0.000000	13.832402	-3.761085	12.506916	38.391946	-28.419593	42.156863	36.391451	60.089877	4.953261	1.569887	39.683659	-44.314870	55.474350	28.616166	52.302418	2.399521	-13.420485
2.406780	3.047608	11.671106	68.733345	0.152952	0.811253	0.619939	1.984652	-3.028286	3.378469	22.617176	0.394744	36.120086	1.515963	0.000000	-6.976867	3.372535	12.233217	9.347288	0.163141	35.453053	-18.412631	0.000000	0.368273	0.122099	-1.179305	0.683920	0.162392	-1.253012	0.605036	0.296872	-1.253012	0.420900	0.296872	-1.031892	0.341979	0.248984	-0.958186	0.210431	0.189131	-0.884479	2.630540	1.381209	-6.558943	0.000000	0.000000	14.575045	-3.473533	12.966822	38.081983	-28.695664	44.254661	34.530641	56.543161	4.633537	2.034325	39.356657	-43.897195	58.762355	25.954466	53.510934	0.292796	-14.797557
2.423729	3.009293	11.388879	68.548614	0.152190	0.810298	0.621601	2.485329	-2.942716	3.666584	22.660463	0.395500	36.131313	1.414916	0.000000	-6.392646	3.381099	11.867086	9.652294	0.168464	35.389327	-18.416764	0.000000	0.361147	0.122940	-1.153753	0.670685	0.163510	-1.225863	0.593328	0.298915	-1.225863	0.412754	0.298915	-1.009534	0.335361	0.250698	-0.937424	0.206359	0.190433	-0.865315	2.579634	1.390717	-6.416828	0.000000	0.000000	15.353713	-3.098293	13.311230	37.768342	-29.017031	46.384664	32.864325	53.118526	4.610314	2.328556	38.358212	-43.571100	60.748779	24.290450	54.909132	-1.349619	-15.515852
